<svg xmlns="http://www.w3.org/2000/svg" style="width: 0; height: 0;">
	<defs>
		<clipPath id="clip-wQhUown6">
			<path d="M778.69,1024h-533.38c-135.48,0 -245.31,-109.83 -245.31,-245.31v-533.38c0,-92.16 50.82,-172.45 125.97,-214.38h772.06c75.15,41.92 125.97,122.21 125.97,214.38v533.38c0,135.48 -109.83,245.31 -245.31,245.31z"/>
		</clipPath>
		<linearGradient x1="512" y1="0" x2="512" y2="1024" id="color-LROe7uU4" gradientUnits="userSpaceOnUse">
			<stop offset="0" stop-color="#000000"/>
			<stop offset="1" stop-color="#ffffff"/>
		</linearGradient>
		<linearGradient x1="512" y1="0" x2="512" y2="1024" id="color-nBTLlwhM" gradientUnits="userSpaceOnUse">
			<stop offset="0.5" stop-color="#000000"/>
			<stop offset="0.5" stop-color="#ffffff"/>
		</linearGradient>
		<filter id="filter-022m90m1" filterUnits="objectBoundingBox" x="-15%" y="-12%" width="130%" height="131%" color-interpolation-filters="sRGB">
			<feColorMatrix values="1 0 0 0 0 0 1 0 0 0 0 0 1 0 0 0 0 0 0.17 0" in="SourceGraphic"/>
			<feOffset dy="21.33"/>
			<feGaussianBlur stdDeviation="11.73" result="blur0"/>
			<feColorMatrix values="1 0 0 0 0 0 1 0 0 0 0 0 1 0 0 0 0 0 0.25 0" in="SourceGraphic"/>
			<feOffset dy="32"/>
			<feGaussianBlur stdDeviation="21.33" result="blur1"/>
			<feMerge>
				<feMergeNode in="blur0"/>
				<feMergeNode in="blur1"/>
			</feMerge>
		</filter>
		<filter id="filter-RVJSsQjU" color-interpolation-filters="sRGB" x="0%" y="0%" width="100%" height="100%">
			<feColorMatrix values="0.17 0.72 0.11 0 -0.1 0.64 0.28 0.08 0 -0.1 0.20 0.23 0.57 0 -0.1 0 0 0 1 0"/>
			<feColorMatrix values="-0.65039 1.77384 -0.12345 0 0 1.60663 -0.345 -0.26163 0 0 -0.42008 -0.48319 1.90327 0 0 0 0 0 1 0"/>
		</filter>
		<mask id="mask-cb9H2RKC">
			<rect fill="url(#color-LROe7uU4)" x="0" y="0" width="1024" height="1024"/>
		</mask>
		<mask id="mask-jugBn78j">
			<path d="M778.69,1024h-533.38c-135.48,0 -245.31,-109.83 -245.31,-245.31v-533.38c0,-135.48 109.83,-245.31 245.31,-245.31h533.38c135.48,0 245.31,109.83 245.31,245.31v533.38c0,135.48 -109.83,245.31 -245.31,245.31z" fill="#ffffff"/>
		</mask>
		<mask id="mask-UzJoSe9g">
			<path d="M778.69,947.2h-533.38c-93.06,0 -168.51,-75.44 -168.51,-168.51v-533.38c0,-93.06 75.44,-168.51 168.51,-168.51h533.38c93.07,0 168.51,75.44 168.51,168.51v533.38c0,93.07 -75.44,168.51 -168.51,168.51z" fill="#ffffff"/>
		</mask>
		<mask id="mask-wKkBLlpw">
			<rect fill="url(#color-nBTLlwhM)" x="0" y="0" width="1024" height="1024"/>
		</mask>
		<mask id="mask-X4Z3uysG" x="-128" y="-96" width="1126.4" height="1126.4" fill="#fff" maskUnits="userSpaceOnUse">
			<path d="M778.69,947.2h-533.38c-93.06,0 -168.51,-75.44 -168.51,-168.51v-533.38c0,-93.06 75.44,-168.51 168.51,-168.51h533.38c93.07,0 168.51,75.44 168.51,168.51v533.38c0,93.07 -75.44,168.51 -168.51,168.51z"/>
		</mask>
		<g style="display: none">
			<symbol id="svg-sprite-hamburger" class="svg-sprite" viewBox="0,0,1024,1024">
				<g fill="none" fill-rule="nonzero" style="mix-blend-mode: normal">
					<g mask="url(#mask-jugBn78j)">
						<g color="#ffffff" class="effect-color-2">
							<rect x="0" y="0" width="1024" height="1024" style="color:var(--effect-color-2, currentColor)" fill="currentColor"/>
						</g>
						<g color="#ffffff" class="effect-color-2" filter="url(#filter-RVJSsQjU)" mask="url(#mask-cb9H2RKC)">
							<rect x="0" y="0" width="1024" height="1024" style="color:var(--effect-color-2, currentColor)" fill="currentColor"/>
						</g>
					</g>
					<g clip-path="url(#clip-wQhUown6)">
						<g fill="#000000" fill-opacity="undefined" filter="url(#filter-022m90m1)">
							<rect mask="url(#mask-X4Z3uysG)" x="-128" y="-96" width="1126.4" height="1126.4"/>
						</g>
					</g>
					<g mask="url(#mask-UzJoSe9g)">
						<g color="#fff8e1" class="effect-color-1" filter="url(#filter-RVJSsQjU)">
							<rect x="0" y="0" width="1024" height="1024" style="color:var(--effect-color-1, currentColor)" fill="currentColor"/>
						</g>
						<g color="#fff8e1" class="effect-color-1" mask="url(#mask-wKkBLlpw)">
							<rect x="0" y="0" width="1024" height="1024" style="color:var(--effect-color-1, currentColor)" fill="currentColor"/>
						</g>
					</g>
					<g>
						<path d="M493.56,635.76l-0.6,0.6c-10.19,0 -18.44,8.26 -18.44,18.44c0,10.84 -8.79,19.63 -19.63,19.63c-10.84,0 -19.63,-8.79 -19.63,-19.63c0,-10.19 -8.26,-18.44 -18.44,-18.44c-10.19,0 -18.44,8.26 -18.44,18.44v38.08c0,10.84 -8.79,19.63 -19.63,19.63c-10.85,0 -19.64,-8.79 -19.64,-19.63v-38.08c0,-10.19 -8.26,-18.44 -18.44,-18.44l-0.59,-0.6z" visibility="hidden"/>
						<path d="M673.36,580.91c-4.83,9.67 -16.67,13.62 -26.34,8.78l-112.21,-56.17l15.2,-7.6l21.09,10.54c11.58,5.79 25.1,5.18 35.95,-1.05c14.45,8.4 33.26,6.5 45.74,-5.7l13.51,6.75c8.68,4.34 18.43,5.08 27.35,2.56c0.2,-0.06 0.41,-0.12 0.62,-0.18z" visibility="hidden"/>
						<g color="#bfde14" class="color-2">
							<path d="M693.65,539.03c5.37,-1.52 10.44,-4.22 14.77,-8.04c1.95,-1.51 3.85,-3.64 5.61,-5.4l17.15,4.28c2.86,0.72 5.72,1.08 8.56,1.13c10.09,8.68 19.78,22.52 19.78,38.12c0,26.29 -27.57,47.6 -38.08,47.6h-418.88c-10.51,0 -38.08,-21.31 -38.08,-47.6c0,-15.59 9.7,-29.44 19.79,-38.12c2.78,-0.05 5.6,-0.42 8.41,-1.12l17.15,-4.28l3.82,3.81c12.27,12.28 31.29,14.66 46.17,5.94l18.84,-9.42l21.09,10.54c11.58,5.79 25.1,5.18 35.96,-1.05c11.67,6.78 26.36,6.96 38.36,-0.07l11.26,-5.63c12.29,12.01 31.11,14.28 45.86,5.63l4.24,-2.12l111.88,55.94c9.38,4.69 20.85,0.86 25.54,-8.51z" style="color:var(--color-2, currentColor)" fill="currentColor"/>
						</g>
						<g color="#ff9833" class="color-3">
							<path d="M288.06,511.41c-10.19,2.55 -20.51,-3.65 -23.06,-13.83c-2.55,-10.19 3.65,-20.51 13.83,-23.06l38.08,-9.52c6.72,-1.68 13.49,0.44 18.06,5l9.41,9.38l25.78,-12.89c5.58,-2.79 11.87,-2.57 17.03,0.04l25.7,12.85l9.4,-9.4c7.43,-7.43 19.49,-7.43 26.92,0l9.4,9.4l25.78,-12.89c7.49,-3.74 16.27,-2.06 21.89,3.55l9.45,9.35l25.78,-12.89c5.58,-2.79 11.87,-2.57 17.03,0.04l25.7,12.85l9.4,-9.4c7.43,-7.43 19.49,-7.43 26.92,0l5.58,5.58l5.58,-5.58c6.38,-6.38 16.18,-7.28 23.53,-2.7l24.19,12.1l9.4,-9.4c5.16,-5.16 12.54,-6.74 19.06,-4.74l37.09,9.28c10.19,2.55 16.38,12.87 13.83,23.06c-2.55,10.19 -12.87,16.38 -23.06,13.83l-27.61,-6.9l-11.49,11.39c-5.62,5.61 -14.4,7.29 -21.89,3.55l-25.78,-12.89l-9.4,9.4c-7.44,7.43 -19.49,7.43 -26.92,0l-5.58,-5.58l-5.63,5.53c-5.62,5.61 -14.4,7.29 -21.89,3.55l-29.6,-14.8l-28.01,14.01c-7.35,4.58 -17.14,3.68 -23.53,-2.7l-9.4,-9.4l-24.19,12.1c-7.35,4.58 -17.14,3.68 -23.53,-2.7l-5.58,-5.58l-5.63,5.53c-5.62,5.61 -14.4,7.29 -21.89,3.55l-29.6,-14.8l-28.01,14.01c-7.35,4.58 -17.14,3.68 -23.53,-2.7l-11.44,-11.44z" style="color:var(--color-3, currentColor)" fill="currentColor"/>
						</g>
						<g color="#00b0f0" class="color-1">
							<path d="M512,293.04c152.32,0 228.48,69.97 228.48,135.39c0,10.13 -9.51,16.93 -19.04,16.93h-418.88c-9.53,0 -19.04,-6.79 -19.04,-16.93c0,-65.43 76.16,-135.39 228.48,-135.39zM302.56,635.76h38.08c10.51,0 19.04,8.53 19.04,19.04v38.08c0,10.51 8.53,19.04 19.04,19.04c10.51,0 19.04,-8.53 19.04,-19.04v-38.08c0,-10.51 8.53,-19.04 19.04,-19.04c10.51,0 19.04,8.53 19.04,19.04c0,10.51 8.53,19.04 19.04,19.04c10.51,0 19.04,-8.53 19.04,-19.04c0,-10.51 8.53,-19.04 19.04,-19.04h228.48c10.49,0 19.04,8.55 19.04,19.04v38.08c0,20.97 -17.11,38.08 -38.08,38.08h-380.8c-20.97,0 -38.08,-17.11 -38.08,-38.08v-38.08c0,-10.49 8.55,-19.04 19.04,-19.04z" style="color:var(--color-1, currentColor)" fill="currentColor"/>
						</g>
					</g>
				</g>
			</symbol>
			<symbol id="svg-sprite-businesspeople" class="svg-sprite" viewBox="0,0,1024,1024">
				<g fill="none" fill-rule="nonzero" style="mix-blend-mode: normal">
					<g mask="url(#mask-jugBn78j)">
						<g color="#ffffff" class="effect-color-2">
							<rect x="0" y="0" width="1024" height="1024" style="color:var(--effect-color-2, currentColor)" fill="currentColor"/>
						</g>
						<g color="#ffffff" class="effect-color-2" filter="url(#filter-RVJSsQjU)" mask="url(#mask-cb9H2RKC)">
							<rect x="0" y="0" width="1024" height="1024" style="color:var(--effect-color-2, currentColor)" fill="currentColor"/>
						</g>
					</g>
					<g clip-path="url(#clip-wQhUown6)">
						<g fill="#000000" fill-opacity="undefined" filter="url(#filter-022m90m1)">
							<rect mask="url(#mask-X4Z3uysG)" x="-128" y="-96" width="1126.4" height="1126.4"/>
						</g>
					</g>
					<g mask="url(#mask-UzJoSe9g)">
						<g color="#fff8e1" class="effect-color-1" filter="url(#filter-RVJSsQjU)">
							<rect x="0" y="0" width="1024" height="1024" style="color:var(--effect-color-1, currentColor)" fill="currentColor"/>
						</g>
						<g color="#fff8e1" class="effect-color-1" mask="url(#mask-wKkBLlpw)">
							<rect x="0" y="0" width="1024" height="1024" style="color:var(--effect-color-1, currentColor)" fill="currentColor"/>
						</g>
					</g>
					<g>
						<path d="M560.08,540.24l0.45,-0.4c5.6,-3.96 10.17,-8.34 13.1,-13.69c2.23,1.76 4.52,3.42 6.87,4.99c8.76,19.43 24.54,40.34 47.05,40.34c22.44,0 38.19,-20.78 46.96,-40.14c2.41,-1.58 4.75,-3.28 7.01,-5.07c2.94,5.3 7.49,9.64 13.05,13.58l0.51,0.47l23.74,31.65l-0.32,0.65l-3.67,0.05h-36.63c-12.36,0 -22.9,7.13 -27.49,18.61l-22.76,56.89h-0.8l-22.76,-56.89c-4.59,-11.48 -15.12,-18.61 -27.49,-18.61h-26.67c-3,-2.43 -6.05,-4.8 -9.12,-7.13z" visibility="hidden"/>
						<g color="#bfde14" class="color-2">
							<path d="M778.56,640.51c0.01,37.54 -90.6,52.37 -151.01,52.37c-6.59,0 -13.53,-0.18 -20.68,-0.54c-1.37,-33.06 -7.64,-65.41 -28.79,-92.33c-8.09,-10.29 -18.02,-19.43 -28.6,-27.94h27.41c12.61,0 23.36,7.28 28.04,18.98l22.61,56.52l22.6,-56.52c4.68,-11.7 15.44,-18.98 28.04,-18.98h39.95l-24.87,-33.16c28.2,20.89 85.27,29.39 85.27,101.59zM529.7,557.11c11.77,-6.4 23.34,-11.69 32.11,-18.2l-20.24,26.98c-3.93,-2.99 -7.91,-5.91 -11.88,-8.79z" style="color:var(--color-2, currentColor)" fill="currentColor"/>
						</g>
						<g color="#8a969a" class="color-4">
							<path d="M675.48,530.69c-11.04,25.16 -28.4,41.38 -47.93,41.38c-19.58,0 -36.97,-16.31 -48.01,-41.58c14.3,9.73 30.68,15.32 48.01,15.32c17.17,0 33.72,-5.54 47.93,-15.12z" style="color:var(--color-4, currentColor)" fill="currentColor"/>
						</g>
						<path d="M605.05,354.6c15.3,19.61 38.16,37.75 61.76,46.02c14.54,5.1 31.51,8.93 46.98,8.25l24.35,-1.06l0.38,0.43l-4.59,23.94c-2.93,15.3 -7.96,31.29 -15.13,46.3c-11.73,10.04 -25.34,18.17 -40.25,23.88c2.95,-3.05 5.7,-6.28 8.25,-9.64c13.95,-18.36 22.71,-41.08 27.12,-63.61c-17.85,0.64 -37.09,-3.55 -53.8,-9.41c-26.99,-9.47 -52.84,-29.63 -70.54,-52.07c-6.24,7.66 -13.76,14.86 -22.15,20.47c-1.87,-6.84 -4.21,-13.49 -6.97,-19.91c5.19,-4.08 9.88,-8.9 13.82,-13.81l15.24,-18.96l0.58,0.01z" visibility="hidden"/>
						<g color="#8a969a" class="color-4">
							<path d="M562.36,485.23c6.81,-17.4 10.57,-36.34 10.57,-56.19c0,-14.4 -1.98,-28.33 -5.67,-41.54c8.29,-5.58 15.9,-12.82 22.32,-20.81c18.18,23.28 44.37,43.21 70.73,52.46c15.88,5.58 35.8,10.15 54.34,9.35c-10.88,56.75 -45.75,98.28 -87.08,98.28c-25.6,0 -48.72,-15.93 -65.19,-41.54z" style="color:var(--color-4, currentColor)" fill="currentColor"/>
						</g>
						<g color="#ff9833" class="color-3">
							<path d="M514.55,308.18c9.15,-10.97 21.42,-19.63 37.5,-24.69c30.2,-28.52 45.3,-28.52 75.51,-28.52c75.06,0 135.9,57.47 135.9,128.35c0,38.22 -17.69,72.52 -45.75,96.04c7.45,-15.3 12.63,-31.66 15.62,-47.27l4.53,-23.65l-24.06,1.05c-15.49,0.67 -32.69,-3.2 -47.2,-8.29c-23.66,-8.3 -46.64,-26.51 -62.03,-46.21l-14.79,-18.94l-15.06,18.73c-4,4.98 -8.76,9.87 -14.04,14c-10.14,-23.85 -26.13,-44.62 -46.14,-60.58z" style="color:var(--color-3, currentColor)" fill="currentColor"/>
						</g>
						<path d="M550.46,705.33c-12.99,11.71 -60.49,20.4 -78.52,22.68c-0.77,0.1 -1.54,0.2 -2.31,0.29l0.57,3.15c1.18,6.53 -0.74,12.7 -5.44,17.39l-19.28,19.28c-9.95,0.61 -19.62,0.92 -28.68,0.92c-9.07,0 -18.74,-0.3 -28.68,-0.92l-19.28,-19.28c-4.69,-4.69 -6.62,-10.86 -5.44,-17.39l0.58,-3.15l-2.3,-0.29c-18.05,-2.28 -65.52,-10.96 -78.53,-22.66l-0.1,-0.08l-0.1,-0.23v-0.13c0.21,-22.18 1.66,-47.27 14.46,-66.23c9.35,-13.85 24.69,-24.82 38.05,-34.55l0.13,-0.1l0.32,-0.04l0.15,0.07c12.11,5.53 24.78,9.8 37.76,12.73c-7.06,-9.27 -10.73,-20.26 -10.73,-32.28v-4.15c0,-1.9 0.24,-3.72 0.72,-5.45c16.55,5.93 34.39,9.16 53,9.16c18.61,0 36.45,-3.23 53,-9.16c0.48,1.73 0.72,3.55 0.72,5.45v4.15c0,12.02 -3.68,23.01 -10.74,32.28c12.99,-2.93 25.66,-7.2 37.78,-12.73l0.15,-0.07l0.32,0.03l0.12,0.1c13.36,9.73 28.71,20.69 38.06,34.52c12.8,18.95 14.23,44.08 14.45,66.25v0.12l-0.1,0.23zM383.36,734.76l33.44,33.44l33.44,-33.44l-20.94,-115.19l0.09,-0.28l11.1,-11.1c6.52,-6.52 9.81,-14.45 9.81,-23.68v-3.41c-11,2.38 -22.23,3.57 -33.49,3.57c-11.26,0 -22.49,-1.19 -33.49,-3.57v3.41c0,9.23 3.28,17.16 9.81,23.68l11.1,11.1l0.09,0.28z" visibility="hidden"/>
						<g color="#00b0f0" class="color-1">
							<path d="M588.16,708.99c0,37.53 -78.12,55.26 -143.57,59.19l19.76,-19.75c4.56,-4.56 6.42,-10.53 5.27,-16.87l-0.68,-3.77c0.98,-0.12 1.96,-0.24 2.93,-0.36c15.06,-1.9 64.88,-10.53 78.2,-22.53c-0.58,-59.9 -13.94,-72.39 -52.26,-100.29c-12.69,5.8 -25.93,10.19 -39.52,13.13c7.65,-9.43 11.64,-20.76 11.64,-33.22v-4.15c0,-1.83 -0.23,-3.59 -0.69,-5.25c11.19,-3.96 21.78,-9.15 31.62,-15.4c56.83,41.9 87.29,56.71 87.31,149.27zM389.01,768.18c-65.45,-3.93 -143.57,-21.65 -143.57,-59.14c0,-92.52 30.56,-107.47 87.31,-149.32c9.84,6.25 20.43,11.44 31.62,15.4c-0.46,1.66 -0.69,3.42 -0.69,5.25v4.15c0,12.46 3.99,23.79 11.64,33.22c-13.59,-2.95 -26.83,-7.34 -39.51,-13.13c-38.28,27.9 -51.69,40.48 -52.26,100.31c13.34,12 63.14,20.61 78.21,22.51c0.98,0.12 1.95,0.24 2.93,0.36l-0.68,3.77c-1.15,6.34 0.71,12.31 5.27,16.87z" style="color:var(--color-1, currentColor)" fill="currentColor"/>
						</g>
						<g color="#bfde14" class="color-2">
							<path d="M382.72,734.96l20.97,-115.35l-10.99,-10.99c-6.64,-6.64 -9.98,-14.71 -9.98,-24.1v-4.15c10.97,2.42 22.37,3.71 34.08,3.71c11.71,0 23.11,-1.29 34.08,-3.71v4.15c0,9.39 -3.34,17.46 -9.98,24.1l-10.99,10.99l20.97,115.35l-34.08,34.08z" style="color:var(--color-2, currentColor)" fill="currentColor"/>
						</g>
						<g color="#8a969a" class="color-4">
							<path d="M416.8,293.04c75.71,0 137.09,60.89 137.09,136c0,75.11 -61.37,136 -137.09,136c-75.71,0 -137.09,-60.89 -137.09,-136c0,-75.11 61.37,-136 137.09,-136z" style="color:var(--color-4, currentColor)" fill="currentColor"/>
						</g>
					</g>
				</g>
			</symbol>
			<symbol id="svg-sprite-record_player" class="svg-sprite" viewBox="0,0,1024,1024">
				<g fill="none" fill-rule="nonzero" style="mix-blend-mode: normal">
					<g mask="url(#mask-jugBn78j)">
						<g color="#ffffff" class="effect-color-2">
							<rect x="0" y="0" width="1024" height="1024" style="color:var(--effect-color-2, currentColor)" fill="currentColor"/>
						</g>
						<g color="#ffffff" class="effect-color-2" filter="url(#filter-RVJSsQjU)" mask="url(#mask-cb9H2RKC)">
							<rect x="0" y="0" width="1024" height="1024" style="color:var(--effect-color-2, currentColor)" fill="currentColor"/>
						</g>
					</g>
					<g clip-path="url(#clip-wQhUown6)">
						<g fill="#000000" fill-opacity="undefined" filter="url(#filter-022m90m1)">
							<rect mask="url(#mask-X4Z3uysG)" x="-128" y="-96" width="1126.4" height="1126.4"/>
						</g>
					</g>
					<g mask="url(#mask-UzJoSe9g)">
						<g color="#fff8e1" class="effect-color-1" filter="url(#filter-RVJSsQjU)">
							<rect x="0" y="0" width="1024" height="1024" style="color:var(--effect-color-1, currentColor)" fill="currentColor"/>
						</g>
						<g color="#fff8e1" class="effect-color-1" mask="url(#mask-wKkBLlpw)">
							<rect x="0" y="0" width="1024" height="1024" style="color:var(--effect-color-1, currentColor)" fill="currentColor"/>
						</g>
					</g>
					<g>
						<path d="M760.12,436.42v128.02c0,9.18 -1.99,17.59 -6.09,25.81l-9.59,19.18c3.64,5.79 4.04,13.11 0.97,19.26l-4.33,8.65v65.3l-0.35,0.35h-38.48c-11.46,7.38 -26.06,8.25 -38.29,2.13l-4.26,-2.13h-98.29c-27.49,12.61 -57.24,19.04 -87.48,19.04c-30.24,0 -59.99,-6.43 -87.47,-19.04h-103.17l-0.35,-0.35v-103.17c-12.61,-27.48 -19.04,-57.23 -19.04,-87.47c0,-30.24 6.43,-59.99 19.04,-87.47v-103.17l0.35,-0.35h103.17c27.48,-12.61 57.23,-19.04 87.47,-19.04c30.24,0 59.99,6.43 87.48,19.04h102.34c0.32,-10.54 9.01,-19.04 19.62,-19.04h76.16c9.16,0 16.89,6.33 19.04,14.84v104.79c-2.1,8.32 -9.54,14.56 -18.44,14.83zM473.92,322.2c-104.83,0 -189.8,84.98 -189.8,189.81c0,104.83 84.98,189.8 189.81,189.8c104.83,0 189.81,-84.98 189.81,-189.8c0,-104.83 -84.98,-189.8 -189.8,-189.8z" visibility="hidden"/>
						<g color="#bfde14" class="color-2">
							<path d="M264.48,283.52h495.04c10.49,0 19.04,8.55 19.04,19.04v19.04c0,-10.49 -8.55,-19.04 -19.04,-19.04h-76.16c-10.48,0 -19.04,8.55 -19.04,19.04h-103.05c-26.59,-12.22 -56.17,-19.04 -87.35,-19.04c-31.18,0 -60.76,6.82 -87.35,19.04h-103.05v103.05c-12.22,26.59 -19.04,56.17 -19.04,87.35c0,31.18 6.82,60.76 19.04,87.35v103.05h103.05c26.59,12.22 56.17,19.04 87.35,19.04c31.18,0 60.76,-6.82 87.35,-19.04h98.56l4.39,2.2c12.52,6.26 26.89,4.94 37.85,-2.2h38.41v-65.19l4.39,-8.77c3.14,-6.27 2.47,-13.47 -1.12,-18.96l9.75,-19.49c4.08,-8.15 6.03,-16.43 6.03,-25.54v-128.6c10.49,0 19.04,-8.56 19.04,-19.04v304.64c0,10.49 -8.55,19.04 -19.04,19.04h-495.04c-10.48,0 -19.04,-8.55 -19.04,-19.04v-418.88c0,-10.49 8.56,-19.04 19.04,-19.04z" style="color:var(--color-2, currentColor)" fill="currentColor"/>
						</g>
						<g color="#ff9833" class="color-3">
							<path d="M683.36,321.6h76.16v95.2h-19.04v147.64c0,6.19 -1.25,11.5 -4.02,17.03l-17.1,34.21l8.48,4.24l-29.57,59.13c-4.69,9.38 -16.17,13.2 -25.54,8.51c-5.6,-2.8 -11.21,-5.6 -16.81,-8.41c-9.38,-4.69 -13.2,-16.17 -8.51,-25.55l29.57,-59.13l8.48,4.24l12.94,-25.88c2.77,-5.53 4.02,-10.83 4.02,-17.03v-139.02h-19.04z" style="color:var(--color-3, currentColor)" fill="currentColor"/>
						</g>
						<path d="M473.92,435.25c42.39,0 76.75,34.37 76.75,76.76c0,42.39 -34.37,76.76 -76.75,76.76c-42.39,0 -76.75,-34.37 -76.75,-76.75c0,-42.39 34.37,-76.75 76.76,-76.75zM474.52,359.44v19.53l-0.35,0.35h-0.24c-73.28,0 -132.68,59.4 -132.68,132.69v0.24l-0.35,0.35h-19.53l-0.35,-0.35v-0.24c0,-84.45 68.46,-152.92 152.92,-152.92h0.24zM473.92,644.68c73.28,0 132.69,-59.4 132.69,-132.68v-0.24l0.35,-0.35h19.53l0.35,0.35v0.24c0,84.45 -68.46,152.91 -152.92,152.91h-0.24l-0.35,-0.35v-19.53l0.35,-0.35zM588.76,512c0,63.42 -51.41,114.84 -114.83,114.84h-0.24l-0.35,-0.35v-19.53l0.35,-0.35h0.24c52.25,0 94.6,-42.36 94.6,-94.61v-0.24l0.35,-0.35h19.53l0.35,0.35zM359.09,512c0,-63.42 51.41,-114.83 114.84,-114.83h0.24l0.35,0.35v19.53l-0.35,0.35h-0.24c-52.25,0 -94.61,42.36 -94.61,94.61v0.24l-0.35,0.35h-19.53l-0.35,-0.35zM473.92,455.48c-31.22,0 -56.53,25.31 -56.53,56.52c0,31.22 25.31,56.52 56.53,56.52c31.22,0 56.53,-25.31 56.53,-56.52c0,-31.22 -25.31,-56.52 -56.53,-56.52zM473.92,492.37c10.84,0 19.63,8.79 19.63,19.63c0,10.84 -8.79,19.63 -19.63,19.63c-10.84,0 -19.63,-8.79 -19.63,-19.63c0,-10.85 8.79,-19.63 19.63,-19.63z" visibility="hidden"/>
						<g color="#8a969a" class="color-4">
							<path d="M473.92,454.88c31.55,0 57.12,25.57 57.12,57.12c0,31.55 -25.57,57.12 -57.12,57.12c-31.55,0 -57.12,-25.57 -57.12,-57.12c0,-31.55 25.57,-57.12 57.12,-57.12zM473.92,492.96c-10.51,0 -19.04,8.53 -19.04,19.04c0,10.51 8.53,19.04 19.04,19.04c10.51,0 19.04,-8.53 19.04,-19.04c0,-10.51 -8.53,-19.04 -19.04,-19.04z" style="color:var(--color-4, currentColor)" fill="currentColor"/>
						</g>
						<g color="#00b0f0" class="color-1">
							<path d="M473.92,321.6c105.15,0 190.4,85.25 190.4,190.4c0,105.15 -85.25,190.4 -190.4,190.4c-105.15,0 -190.4,-85.25 -190.4,-190.4c0,-105.15 85.25,-190.4 190.4,-190.4zM473.92,435.84c-42.06,0 -76.16,34.1 -76.16,76.16c0,42.06 34.1,76.16 76.16,76.16c42.06,0 76.16,-34.1 76.16,-76.16c0,-42.06 -34.1,-76.16 -76.16,-76.16zM473.92,359.68c-84.13,0 -152.32,68.19 -152.32,152.32h19.04c0,-73.61 59.67,-133.28 133.28,-133.28zM473.92,645.28v19.04c84.13,0 152.32,-68.19 152.32,-152.32h-19.04c0,73.61 -59.67,133.28 -133.28,133.28zM588.16,512h-19.04c0,52.58 -42.62,95.2 -95.2,95.2v19.04c63.09,0 114.24,-51.15 114.24,-114.24zM359.68,512h19.04c0,-52.58 42.63,-95.2 95.2,-95.2v-19.04c-63.09,0 -114.24,51.15 -114.24,114.24z" style="color:var(--color-1, currentColor)" fill="currentColor"/>
						</g>
					</g>
				</g>
			</symbol>
			<symbol id="svg-sprite-painters_palette" class="svg-sprite" viewBox="0,0,1024,1024">
				<g fill="none" fill-rule="nonzero" style="mix-blend-mode: normal">
					<g mask="url(#mask-jugBn78j)">
						<g color="#ffffff" class="effect-color-2">
							<rect x="0" y="0" width="1024" height="1024" style="color:var(--effect-color-2, currentColor)" fill="currentColor"/>
						</g>
						<g color="#ffffff" class="effect-color-2" filter="url(#filter-RVJSsQjU)" mask="url(#mask-cb9H2RKC)">
							<rect x="0" y="0" width="1024" height="1024" style="color:var(--effect-color-2, currentColor)" fill="currentColor"/>
						</g>
					</g>
					<g clip-path="url(#clip-wQhUown6)">
						<g fill="#000000" fill-opacity="undefined" filter="url(#filter-022m90m1)">
							<rect mask="url(#mask-X4Z3uysG)" x="-128" y="-96" width="1126.4" height="1126.4"/>
						</g>
					</g>
					<g mask="url(#mask-UzJoSe9g)">
						<g color="#fff8e1" class="effect-color-1" filter="url(#filter-RVJSsQjU)">
							<rect x="0" y="0" width="1024" height="1024" style="color:var(--effect-color-1, currentColor)" fill="currentColor"/>
						</g>
						<g color="#fff8e1" class="effect-color-1" mask="url(#mask-wKkBLlpw)">
							<rect x="0" y="0" width="1024" height="1024" style="color:var(--effect-color-1, currentColor)" fill="currentColor"/>
						</g>
					</g>
					<g>
						<path d="M302.38,474.49c-7.37,-2.4 -15.03,-6.38 -18.06,-13.98c-2.6,-6.52 -1.16,-14.1 0.87,-20.56c2.83,-9.04 7.4,-18.12 11.63,-26.6c31.11,-62.34 86.94,-109.72 155.49,-125.04c58.48,-13.07 122.61,-2.18 172.09,32.1c49.93,34.58 75.01,96.06 78.03,155.2c1.72,33.69 -3.46,67.59 -15.23,99.22c-12.42,33.4 -31.93,63.71 -57.24,88.8c-50.38,49.91 -119.15,74.74 -189.32,77.25c-53.56,1.92 -124.56,-5.5 -154.71,-56.61c-4.68,-7.94 -3.3,-17.74 3.37,-24.1c12.5,-11.91 27.92,-21.4 42.51,-30.52c29.79,-18.64 65.35,-39.72 65.35,-79.55c0,-16.09 -4.7,-30.29 -16.18,-41.8c-19.94,-20 -52.73,-25.38 -78.61,-33.79zM527.82,526.89c29.25,-29.76 28.83,-77.61 -0.93,-106.86c-29.76,-29.25 -77.61,-28.83 -106.86,0.93c-29.26,29.76 -28.84,77.61 0.92,106.86c29.76,29.25 77.61,28.83 106.86,-0.93z" visibility="hidden"/>
						<g color="#00b0f0" class="color-1">
							<path d="M290.79,510.13c-18.39,-5.97 -33.94,-17.3 -41.3,-35.75c-10.76,-27.01 1.8,-53.78 13.78,-77.78c36.16,-72.45 101.27,-127.1 180.86,-144.89c68.62,-15.33 143.58,-2.32 201.6,37.87c59.65,41.32 90.51,113.19 94.13,184.1c4.11,80.46 -26.25,159.81 -83.53,216.55c-57.11,56.58 -134.73,85.23 -214.36,88.08c-68.77,2.46 -150.08,-10.16 -188.33,-75.04c-13.54,-22.96 -9.49,-51.9 9.8,-70.28c14.54,-13.86 31.55,-24.56 48.49,-35.16c15.14,-9.47 47.74,-26.81 47.74,-47.77c0,-5.97 -0.94,-11.02 -5.24,-15.33c-11.98,-12.01 -47.66,-19.41 -63.65,-24.62zM302.56,473.92c36.1,11.73 95.2,19.04 95.2,76.16c0,57.12 -70.36,74.6 -108.05,110.5c-6.48,6.18 -7.81,15.67 -3.27,23.37c29.87,50.66 100.27,58.26 154.16,56.32c70.12,-2.51 138.71,-27.34 188.92,-77.08c49.86,-49.4 75.86,-117.79 72.29,-187.56c-3,-58.79 -27.9,-120.2 -77.78,-154.74c-49.31,-34.15 -113.25,-45.05 -171.62,-32.01c-68.57,15.32 -123.83,62.92 -155.09,124.73c-14.6,30.05 -23.65,50.93 5.22,60.31zM420.54,528.24c-30,-29.48 -30.42,-77.71 -0.93,-107.7c29.48,-30 77.71,-30.42 107.7,-0.93c30,29.48 30.42,77.7 0.93,107.7c-29.48,30 -77.7,30.42 -107.7,0.93zM500.61,446.76c-15,-14.74 -39.11,-14.54 -53.85,0.46c-14.74,15 -14.54,39.11 0.46,53.85c15,14.74 39.11,14.54 53.85,-0.46c14.74,-15 14.53,-39.11 -0.47,-53.85z" style="color:var(--color-1, currentColor)" fill="currentColor"/>
						</g>
						<g color="#bfde14" class="color-2">
							<path d="M506.69,608.13c23.98,-6.08 30.37,19.12 18.62,29.51c-5.58,4.93 3.86,6 3.86,12.02c0,9.15 -6.08,17.18 -15.04,19.45c-33.18,8.44 -30.57,27.8 -31.17,29.4c-3.07,8.16 -11.41,14.02 -21.21,14.02c-12.41,0 -22.47,-9.38 -22.47,-20.96c0,-0.92 0.07,-1.83 0.19,-2.72c1.2,-8.63 -3.1,-16.65 -11.23,-20.94c-6.82,-3.59 -11.43,-10.42 -11.43,-18.25c0,-11.16 9.35,-20.28 21.15,-20.92c13.96,-0.76 17.15,-0.08 23.58,-9.41c10.13,-14.68 24.53,-5.97 45.16,-11.2z" style="color:var(--color-2, currentColor)" fill="currentColor"/>
						</g>
						<g color="#ff9833" class="color-3">
							<path d="M600.16,414.47c-4.88,-7.91 -18.24,2.68 -31.04,2.68c-10.51,0 -19.04,-8.53 -19.04,-19.04c0,-19.39 19.63,-14.27 19.04,-38.08c-0.26,-10.51 8.53,-19.04 19.04,-19.04c8.31,0 15.37,5.31 17.97,12.73c1.81,5.17 5.69,6.31 10.59,6.31c14.24,0 4.96,16.29 15.83,20.11c7.41,2.6 12.73,9.66 12.73,17.97c0,2.21 -0.37,4.33 -1.07,6.31c-0.75,2.13 -0.74,4.19 0.01,6.32c0.69,1.95 1.07,4.05 1.07,6.24c0,10.42 -8.53,18.87 -19.04,18.87c-19.04,0 -20.4,-12.15 -26.08,-21.37z" style="color:var(--color-3, currentColor)" fill="currentColor"/>
						</g>
						<g color="#bfde14" class="color-2">
							<path d="M645.46,466.7c4.94,-6.1 10.56,-11.82 18.86,-11.82c10.51,0 19.04,8.53 19.04,19.04c0,8.3 -5.31,15.36 -12.72,17.96c-13.73,4.84 -6.32,29.19 -6.32,39.16c0,10.51 -8.53,19.04 -19.04,19.04c-8.3,0 -15.37,-5.31 -17.97,-12.73c-2.95,-8.4 -13.07,-6.31 -20.11,-6.31c-10.51,0 -19.04,-8.53 -19.04,-19.04c0,-8.31 5.31,-15.37 12.73,-17.97c5.16,-1.81 6.31,-5.69 6.31,-10.59c0,-5.26 4.26,-9.52 9.52,-9.52c6.72,0 22.68,0.28 28.74,-7.22z" style="color:var(--color-2, currentColor)" fill="currentColor"/>
						</g>
						<g color="#8a969a" class="color-4">
							<path d="M617.05,632.65c0,10.9 -5.89,14.92 -17.05,16.09c-9.17,0.96 -11.28,15.58 -23.92,15.58c-9.22,0 -16.69,-7.09 -16.69,-15.83c0,-7.56 7.68,-13.85 -1.02,-20.55c-5.05,-3.89 -8.28,-9.82 -8.28,-16.46c0,-9.56 6.67,-17.64 15.84,-20.27c11.4,-3.28 6.84,-22.09 28.81,-22.09c15.29,0 15.26,9.91 23.6,12.32c4.58,1.32 7.91,5.36 7.91,10.13c0,4.99 -2.8,10.03 -6.79,12.94c-14.51,10.56 -2.39,18.72 -2.39,28.14z" style="color:var(--color-4, currentColor)" fill="currentColor"/>
						</g>
						<g color="#8a969a" class="color-4">
							<path d="M498.71,321.9c10.9,0 20.54,7.1 21.71,16.62c0.33,2.73 1.76,4.96 4.21,6.59c3.89,2.59 6.4,6.75 6.4,11.44c0,7.86 -7.09,14.23 -15.83,14.23c-2.98,0 -5.4,-0.61 -7.35,-1.54c-4.52,-2.16 -9.97,-1.16 -13.2,2.42c-3.88,4.31 -9.82,7.06 -16.46,7.06c-9.56,0 -17.64,-5.69 -20.27,-13.51c-1.06,-3.14 -3.57,-5.4 -7.06,-6.35c-8.69,-2.37 -15.02,-9.63 -15.02,-18.22c0,-13.04 9.91,-13.01 12.32,-20.13c1.32,-3.9 5.36,-6.75 10.13,-6.75c4.99,0 7.85,3.59 10.29,7.28c7.59,11.48 20.71,0.85 30.13,0.85z" style="color:var(--color-4, currentColor)" fill="currentColor"/>
						</g>
					</g>
				</g>
			</symbol>
			<symbol id="svg-sprite-containership" class="svg-sprite" viewBox="0,0,1024,1024">
				<g fill="none" fill-rule="nonzero" style="mix-blend-mode: normal">
					<g mask="url(#mask-jugBn78j)">
						<g color="#ffffff" class="effect-color-2">
							<rect x="0" y="0" width="1024" height="1024" style="color:var(--effect-color-2, currentColor)" fill="currentColor"/>
						</g>
						<g color="#ffffff" class="effect-color-2" filter="url(#filter-RVJSsQjU)" mask="url(#mask-cb9H2RKC)">
							<rect x="0" y="0" width="1024" height="1024" style="color:var(--effect-color-2, currentColor)" fill="currentColor"/>
						</g>
					</g>
					<g clip-path="url(#clip-wQhUown6)">
						<g fill="#000000" fill-opacity="undefined" filter="url(#filter-022m90m1)">
							<rect mask="url(#mask-X4Z3uysG)" x="-128" y="-96" width="1126.4" height="1126.4"/>
						</g>
					</g>
					<g mask="url(#mask-UzJoSe9g)">
						<g color="#fff8e1" class="effect-color-1" filter="url(#filter-RVJSsQjU)">
							<rect x="0" y="0" width="1024" height="1024" style="color:var(--effect-color-1, currentColor)" fill="currentColor"/>
						</g>
						<g color="#fff8e1" class="effect-color-1" mask="url(#mask-wKkBLlpw)">
							<rect x="0" y="0" width="1024" height="1024" style="color:var(--effect-color-1, currentColor)" fill="currentColor"/>
						</g>
					</g>
					<g>
						<g color="#8a969a" class="color-4">
							<path d="M312.08,702.4c12.99,23.42 38.04,39.27 66.64,39.27c28.6,0 53.38,-15.68 66.43,-38.9c12.98,23.44 38.09,38.9 66.85,38.9c28.76,0 53.73,-15.61 66.66,-39.23c13,23.4 37.95,39.23 66.62,39.23c28.67,0 53.65,-15.85 66.64,-39.27c12.99,23.42 37.96,39.27 66.64,39.27v38.08c-24.37,0 -47.56,-7.74 -66.64,-21.44c-19.08,13.7 -42.26,21.44 -66.64,21.44c-24.29,0 -47.4,-7.69 -66.44,-21.3c-19.15,13.87 -42.3,21.3 -66.84,21.3c-24.46,0 -47.9,-7.38 -67.02,-21.17c-19,13.54 -42.05,21.17 -66.26,21.17c-24.38,0 -47.56,-7.74 -66.64,-21.44c-19.08,13.7 -42.27,21.44 -66.64,21.44v-38.08c28.68,0 53.65,-15.85 66.64,-39.27z" style="color:var(--color-4, currentColor)" fill="currentColor"/>
						</g>
						<path d="M428.35,568.85c10.75,-2.09 21.76,5.94 25.63,15.68c3.83,9.64 0.45,20.81 -10.52,22.94c-10.75,2.09 -21.76,-5.94 -25.63,-15.68c-3.83,-9.64 -0.45,-20.81 10.52,-22.94zM595.78,568.85c10.97,2.14 14.35,13.3 10.53,22.94c-3.87,9.74 -14.88,17.77 -25.63,15.68c-10.97,-2.14 -14.35,-13.3 -10.52,-22.94c3.87,-9.74 14.87,-17.77 25.62,-15.68z" visibility="hidden"/>
						<g color="#00b0f0" class="color-1">
							<path d="M512.34,483.1c4.65,0.05 8.97,0.87 13.1,2.34l234.08,83.67c-0.25,39.95 -51.19,66.15 -69.79,132.26c-10.73,13.29 -26.97,21.25 -44.45,21.25c-20.84,0 -39.88,-11.28 -49.97,-29.43c-3.46,-6.22 -9.59,-9.81 -16.71,-9.79c-7.12,0.02 -13.22,3.65 -16.64,9.9c-10.02,18.3 -29.05,29.31 -49.94,29.33c-20.85,0 -40.1,-10.83 -50.22,-29.08c-3.43,-6.2 -9.51,-9.79 -16.59,-9.81c-7.09,-0.02 -13.19,3.53 -16.65,9.71c-10.15,18.05 -29.06,29.18 -49.84,29.18c-17.45,0 -33.71,-7.97 -44.44,-21.24c-18.62,-66.24 -69.8,-92.72 -69.8,-132.27c74.54,-30.08 160.92,-53.6 235.45,-83.67c3.87,-1.56 7.96,-2.31 12.41,-2.34zM595.66,569.43c-9.67,-1.88 -20.85,4.97 -24.96,15.32c-4.11,10.35 0.41,20.25 10.09,22.14c9.67,1.88 20.85,-4.98 24.96,-15.32c4.11,-10.35 -0.4,-20.25 -10.09,-22.14zM428.47,569.43c-9.67,1.89 -14.19,11.79 -10.08,22.14c4.11,10.34 15.28,17.2 24.95,15.32c9.68,-1.89 14.19,-11.79 10.09,-22.14c-4.11,-10.35 -15.29,-17.2 -24.96,-15.32z" style="color:var(--color-1, currentColor)" fill="currentColor"/>
						</g>
						<path d="M607.79,454.29h132.69v20.23h-132.69v20.15l-20.23,-7.23v-12.92h-36.14l-19.58,-7c-12.64,-4.52 -26.51,-4.78 -39.03,0.27c-5.68,2.3 -11.39,4.53 -17.11,6.73h-39.26v14.36c-6.73,2.36 -13.48,4.68 -20.23,6.98v-21.34h-132.68v-20.23h132.69v-75.56h20.23v75.57h151.13v-75.56h20.23z" visibility="hidden"/>
						<g color="#bfde14" class="color-2">
							<path d="M435.84,378.72h152.32v76.16h-152.32zM283.52,378.72h133.28v76.16h-133.28zM607.2,378.72h133.28v76.16h-133.28zM740.48,473.92v68.18l-133.28,-47.64v-20.53zM283.52,541.3v-67.38h133.28v21.74c-44.45,15.14 -89.32,29.18 -133.28,45.65zM435.84,489.09v-15.17h41.41c-13.71,5.28 -27.53,10.3 -41.41,15.17zM549.76,473.92h38.4v13.73z" style="color:var(--color-2, currentColor)" fill="currentColor"/>
						</g>
						<g color="#ff9833" class="color-3">
							<path d="M378.72,321.6h57.12v-19.04h66.57v-38.08h-66.57v-19.04h152.32v19.04h-66.71v38.08h66.71v19.04h57.12c10.49,0 19.04,8.55 19.04,19.04v19.04h-304.64v-19.04c0,-10.49 8.56,-19.04 19.04,-19.04z" style="color:var(--color-3, currentColor)" fill="currentColor"/>
						</g>
					</g>
				</g>
			</symbol>
		</g>
	</defs>
</svg>