<svg xmlns="http://www.w3.org/2000/svg" style="width: 0; height: 0;">
	<defs>
		<g style="display: none">
			<symbol id="svg-sprite-businesspeople" class="svg-sprite" viewBox="0,0,1024,1024">
				<g fill="none" fill-rule="nonzero" style="mix-blend-mode: normal">
					<path d="M592.8,575.47l0.76,-0.67c9.42,-6.66 17.1,-14.02 22.02,-23c3.74,2.95 7.59,5.75 11.55,8.38c14.73,32.65 41.24,67.79 79.08,67.79c37.72,0 64.19,-34.93 78.93,-67.47c4.05,-2.66 7.98,-5.51 11.78,-8.52c4.94,8.9 12.58,16.21 21.93,22.82l0.85,0.79l39.9,53.2l-0.54,1.1l-6.16,0.08h-61.57c-20.77,0 -38.48,11.98 -46.2,31.27l-38.25,95.62h-1.35l-38.25,-95.62c-7.71,-19.29 -25.42,-31.27 -46.2,-31.27h-44.83c-5.04,-4.08 -10.16,-8.06 -15.33,-11.98z" visibility="hidden"/>
					<g color="#93a0a8" class="color-2" style="fill:var(--color-2, currentColor)">
						<path d="M960,743.98c0.01,63.1 -152.27,88.02 -253.79,88.02c-11.07,0 -22.74,-0.3 -34.75,-0.91c-2.3,-55.57 -12.84,-109.93 -48.38,-155.17c-13.59,-17.29 -30.29,-32.65 -48.07,-46.95h46.07c21.19,0 39.26,12.23 47.13,31.9l38,94.99l37.99,-94.99c7.87,-19.67 25.95,-31.9 47.13,-31.9h67.15l-41.79,-55.73c47.39,35.11 143.31,49.39 143.31,170.74zM541.75,603.82c19.78,-10.75 39.23,-19.65 53.97,-30.58l-34.01,45.35c-6.61,-5.02 -13.3,-9.93 -19.96,-14.77z"/>
					</g>
					<g color="#b4c2c8" class="color-4" style="fill:var(--color-4, currentColor)">
						<path d="M786.76,559.42c-18.56,42.28 -47.73,69.55 -80.55,69.55c-32.91,0 -62.14,-27.41 -80.69,-69.88c24.04,16.35 51.56,25.74 80.69,25.74c28.85,0 56.67,-9.31 80.55,-25.41z"/>
					</g>
					<path d="M668.39,263.47c25.72,32.95 64.14,63.44 103.79,77.35c24.43,8.57 52.96,15 78.95,13.87l40.92,-1.78l0.64,0.73l-7.72,40.23c-4.93,25.71 -13.37,52.59 -25.43,77.81c-19.72,16.88 -42.58,30.54 -67.65,40.13c4.95,-5.12 9.58,-10.56 13.87,-16.2c23.45,-30.86 38.17,-69.05 45.58,-106.9c-30,1.07 -62.33,-5.96 -90.42,-15.81c-45.36,-15.92 -88.8,-49.79 -118.55,-87.52c-10.49,12.87 -23.12,24.98 -37.22,34.4c-3.15,-11.49 -7.07,-22.67 -11.71,-33.47c8.72,-6.85 16.6,-14.96 23.22,-23.21l25.61,-31.86l0.97,0.01z" visibility="hidden"/>
					<g color="#b4c2c8" class="color-4" style="fill:var(--color-4, currentColor)">
						<path d="M596.64,483.01c11.45,-29.24 17.76,-61.07 17.76,-94.44c0,-24.21 -3.33,-47.62 -9.53,-69.81c13.94,-9.37 26.72,-21.55 37.51,-34.98c30.55,39.12 74.57,72.63 118.87,88.17c26.69,9.37 60.17,17.06 91.32,15.71c-18.29,95.38 -76.89,165.17 -146.36,165.17c-43.03,0 -81.88,-26.77 -109.57,-69.82z"/>
					</g>
					<g color="#ffa726" class="color-3" style="fill:var(--color-3, currentColor)">
						<path d="M516.29,185.44c15.38,-18.44 36,-33 63.02,-41.5c50.76,-47.94 76.14,-47.94 126.9,-47.94c126.15,0 228.41,96.58 228.41,215.72c0,64.23 -29.73,121.89 -76.89,161.41c12.52,-25.72 21.23,-53.21 26.26,-79.45l7.62,-39.75l-40.43,1.76c-26.03,1.13 -54.94,-5.37 -79.33,-13.93c-39.76,-13.95 -78.39,-44.56 -104.25,-77.67l-24.85,-31.84l-25.31,31.48c-6.73,8.37 -14.73,16.59 -23.6,23.53c-17.05,-40.09 -43.92,-74.99 -77.55,-101.82z"/>
					</g>
					<path d="M576.64,852.93c-21.83,19.68 -101.67,34.28 -131.97,38.12c-1.3,0.17 -2.59,0.33 -3.88,0.48l0.96,5.29c1.99,10.97 -1.25,21.34 -9.14,29.23l-32.4,32.41c-16.72,1.03 -32.97,1.54 -48.21,1.54c-15.24,0 -31.49,-0.51 -48.21,-1.54l-32.4,-32.41c-7.89,-7.88 -11.13,-18.25 -9.14,-29.23l0.97,-5.29l-3.87,-0.48c-30.33,-3.83 -110.12,-18.42 -131.99,-38.09l-0.16,-0.14l-0.17,-0.39v-0.22c0.36,-37.27 2.79,-79.44 24.31,-111.31c15.72,-23.27 41.49,-41.71 63.95,-58.07l0.22,-0.16l0.53,-0.06l0.25,0.11c20.36,9.3 41.65,16.47 63.47,21.4c-11.86,-15.58 -18.04,-34.05 -18.04,-54.25v-6.97c0,-3.2 0.41,-6.26 1.21,-9.16c27.81,9.97 57.8,15.4 89.07,15.4c31.27,0 61.26,-5.43 89.07,-15.4c0.8,2.9 1.21,5.96 1.21,9.16v6.97c0,20.2 -6.18,38.68 -18.05,54.25c21.84,-4.92 43.13,-12.1 63.49,-21.4l0.25,-0.11l0.54,0.05l0.21,0.16c22.45,16.35 48.25,34.77 63.97,58.02c21.52,31.85 23.92,74.09 24.28,111.34v0.21l-0.17,0.39zM295.8,902.38l56.2,56.21l56.2,-56.21l-35.2,-193.59l0.15,-0.47l18.65,-18.65c10.96,-10.96 16.48,-24.29 16.48,-39.8v-5.73c-18.49,4 -37.36,6 -56.28,6c-18.92,0 -37.79,-2 -56.28,-6v5.73c0,15.51 5.52,28.84 16.48,39.8l18.65,18.65l0.15,0.47z" visibility="hidden"/>
					<g color="#29b5f7" class="color-1" style="fill:var(--color-1, currentColor)">
						<path d="M640,859.07c0,63.08 -131.3,92.87 -241.3,99.48l33.21,-33.2c7.66,-7.66 10.79,-17.7 8.85,-28.35l-1.15,-6.33c1.65,-0.2 3.29,-0.4 4.93,-0.61c25.31,-3.2 109.05,-17.7 131.43,-37.87c-0.97,-100.68 -23.43,-121.67 -87.83,-168.56c-21.32,9.74 -43.58,17.12 -66.42,22.07c12.86,-15.85 19.56,-34.89 19.56,-55.83v-6.97c0,-3.08 -0.39,-6.03 -1.16,-8.82c18.8,-6.65 36.6,-15.37 53.14,-25.88c95.51,70.42 146.71,95.31 146.74,250.87zM305.3,958.55c-110,-6.6 -241.3,-36.39 -241.3,-99.39c0,-155.49 51.36,-180.62 146.74,-250.96c16.54,10.51 34.34,19.23 53.14,25.88c-0.77,2.79 -1.16,5.74 -1.16,8.82v6.97c0,20.94 6.7,39.98 19.56,55.83c-22.84,-4.95 -45.09,-12.33 -66.41,-22.07c-64.34,46.89 -86.87,68.04 -87.84,168.59c22.42,20.16 106.12,34.64 131.44,37.84c1.64,0.21 3.28,0.41 4.92,0.61l-1.15,6.33c-1.94,10.65 1.19,20.69 8.85,28.35z"/>
					</g>
					<g color="#93a0a8" class="color-2" style="fill:var(--color-2, currentColor)">
						<path d="M294.72,902.72l35.25,-193.87l-18.47,-18.47c-11.16,-11.16 -16.78,-24.73 -16.78,-40.51v-6.97c18.44,4.07 37.6,6.24 57.28,6.24c19.68,0 38.84,-2.17 57.28,-6.24v6.97c0,15.78 -5.62,29.35 -16.78,40.51l-18.47,18.47l35.25,193.87l-57.28,57.28z"/>
					</g>
					<g color="#b4c2c8" class="color-4" style="fill:var(--color-4, currentColor)">
						<path d="M352,160c127.25,0 230.4,102.33 230.4,228.57c0,126.24 -103.15,228.57 -230.4,228.57c-127.25,0 -230.4,-102.33 -230.4,-228.57c0,-126.24 103.15,-228.57 230.4,-228.57z"/>
					</g>
				</g>
			</symbol>
			<symbol id="svg-sprite-containership" class="svg-sprite" viewBox="0,0,1024,1024">
				<g fill="none" fill-rule="nonzero" style="mix-blend-mode: normal">
					<g color="#b4c2c8" class="color-4" style="fill:var(--color-4, currentColor)">
						<path d="M176,832c21.83,39.36 63.93,66 112,66c48.07,0 89.72,-26.36 111.65,-65.37c21.82,39.39 64.01,65.37 112.35,65.37c48.34,0 90.31,-26.23 112.04,-65.93c21.85,39.32 63.78,65.93 111.96,65.93c48.19,0 90.17,-26.64 112,-66c21.83,39.36 63.8,66 112,66v64c-40.96,0 -79.94,-13.01 -112,-36.04c-32.06,23.03 -71.03,36.04 -112,36.04c-40.82,0 -79.67,-12.92 -111.67,-35.8c-32.18,23.31 -71.09,35.8 -112.33,35.8c-41.11,0 -80.51,-12.4 -112.64,-35.58c-31.94,22.75 -70.67,35.58 -111.36,35.58c-40.97,0 -79.94,-13.01 -112,-36.04c-32.06,23.03 -71.04,36.04 -112,36.04v-64c48.2,0 90.17,-26.64 112,-66z"/>
					</g>
					<path d="M371.42,607.54c18.06,-3.51 36.57,9.99 43.07,26.36c6.43,16.2 0.76,34.97 -17.68,38.56c-18.07,3.51 -36.57,-9.99 -43.07,-26.36c-6.44,-16.2 -0.76,-34.97 17.68,-38.56zM652.8,607.54c18.44,3.59 24.12,22.36 17.69,38.56c-6.51,16.37 -25.01,29.87 -43.07,26.36c-18.44,-3.59 -24.12,-22.36 -17.68,-38.56c6.5,-16.37 25,-29.87 43.06,-26.36z" visibility="hidden"/>
					<g color="#29b5f7" class="color-1" style="fill:var(--color-1, currentColor)">
						<path d="M512.57,463.43c7.81,0.08 15.08,1.46 22.01,3.94l393.42,140.63c-0.42,67.15 -86.04,111.18 -117.29,222.29c-18.03,22.34 -45.32,35.71 -74.71,35.71c-35.02,0 -67.03,-18.95 -83.98,-49.47c-5.82,-10.46 -16.11,-16.49 -28.08,-16.46c-11.97,0.04 -22.22,6.14 -27.97,16.64c-16.84,30.76 -48.82,49.26 -83.93,49.29c-35.04,0 -67.4,-18.2 -84.4,-48.88c-5.77,-10.42 -15.98,-16.46 -27.89,-16.49c-11.91,-0.04 -22.16,5.93 -27.99,16.32c-17.06,30.33 -48.84,49.05 -83.76,49.05c-29.33,0 -56.66,-13.39 -74.69,-35.69c-31.29,-111.32 -117.31,-155.84 -117.31,-222.31c125.28,-50.55 270.45,-90.08 395.72,-140.63c6.51,-2.63 13.38,-3.88 20.85,-3.94zM652.61,608.52c-16.26,-3.16 -35.04,8.36 -41.95,25.75c-6.9,17.39 0.69,34.04 16.95,37.21c16.26,3.16 35.04,-8.37 41.95,-25.75c6.9,-17.39 -0.68,-34.04 -16.95,-37.21zM371.61,608.52c-16.26,3.17 -23.85,19.82 -16.94,37.21c6.9,17.38 25.68,28.91 41.94,25.75c16.27,-3.17 23.85,-19.82 16.95,-37.21c-6.9,-17.39 -25.69,-28.91 -41.95,-25.75z"/>
					</g>
					<path d="M673,415h223v34h-223v33.86l-34,-12.15v-21.71h-60.74l-32.91,-11.77c-21.24,-7.59 -44.56,-8.03 -65.6,0.46c-9.55,3.86 -19.14,7.62 -28.76,11.31h-65.99v24.14c-11.31,3.96 -22.65,7.87 -34,11.73v-35.87h-223v-34h223v-127h34v127h254v-127h34z" visibility="hidden"/>
					<g color="#93a0a8" class="color-2" style="fill:var(--color-2, currentColor)">
						<path d="M384,288h256v128h-256zM128,288h224v128h-224zM672,288h224v128h-224zM896,448v114.58l-224,-80.07v-34.51zM128,561.25v-113.25h224v36.53c-74.7,25.44 -150.11,49.04 -224,76.72zM384,473.49v-25.49h69.59c-23.05,8.88 -46.27,17.31 -69.59,25.49zM575.47,448h64.53v23.07z"/>
					</g>
					<g color="#ffa726" class="color-3" style="fill:var(--color-3, currentColor)">
						<path d="M288,192h96v-32h111.89v-64h-111.89v-32h256v32h-112.11v64h112.11v32h96c17.63,0 32,14.37 32,32v32h-512v-32c0,-17.63 14.38,-32 32,-32z"/>
					</g>
				</g>
			</symbol>
			<symbol id="svg-sprite-hamburger" class="svg-sprite" viewBox="0,0,1024,1024">
				<g fill="none" fill-rule="nonzero" style="mix-blend-mode: normal">
					<path d="M481,736l-1,1c-17.12,0 -31,13.88 -31,31c0,18.22 -14.78,33 -33,33c-18.22,0 -33,-14.78 -33,-33c0,-17.12 -13.88,-31 -31,-31c-17.12,0 -31,13.88 -31,31v64c0,18.22 -14.78,33 -33,33c-18.23,0 -33,-14.78 -33,-33v-64c0,-17.12 -13.88,-31 -31,-31l-1,-1z" visibility="hidden"/>
					<path d="M783.2,643.82c-8.12,16.26 -28.01,22.89 -44.27,14.76l-188.59,-94.41l25.54,-12.77l35.44,17.72c19.46,9.73 42.18,8.71 60.42,-1.77c24.29,14.12 55.9,10.93 76.87,-9.58l22.71,11.35c14.58,7.29 30.98,8.54 45.97,4.31c0.34,-0.1 0.69,-0.2 1.04,-0.3z" visibility="hidden"/>
					<g color="#93a0a8" class="color-2" style="fill:var(--color-2, currentColor)">
						<path d="M817.29,573.43c9.03,-2.55 17.54,-7.1 24.83,-13.52c3.27,-2.54 6.47,-6.11 9.43,-9.07l28.82,7.2c4.8,1.21 9.62,1.82 14.38,1.9c16.95,14.59 33.25,37.85 33.25,64.06c0,44.18 -46.33,80 -64,80h-704c-17.67,0 -64,-35.82 -64,-80c0,-26.21 16.3,-49.48 33.26,-64.07c4.68,-0.09 9.41,-0.71 14.13,-1.89l28.82,-7.2l6.42,6.41c20.63,20.64 52.59,24.64 77.59,9.98l31.66,-15.83l35.44,17.72c19.46,9.73 42.19,8.71 60.43,-1.77c19.62,11.39 44.31,11.7 64.47,-0.12l18.93,-9.46c20.65,20.18 52.28,24 77.07,9.46l7.12,-3.56l188.04,94.02c15.76,7.88 35.05,1.45 42.93,-14.31z"/>
					</g>
					<g color="#ffa726" class="color-3" style="fill:var(--color-3, currentColor)">
						<path d="M135.63,527c-17.12,4.28 -34.47,-6.13 -38.75,-23.25c-4.28,-17.12 6.13,-34.47 23.25,-38.75l64,-16c11.29,-2.82 22.67,0.74 30.35,8.4l15.82,15.77l43.33,-21.67c9.37,-4.69 19.95,-4.32 28.63,0.07l43.2,21.6l15.8,-15.8c12.49,-12.49 32.75,-12.49 45.25,0l15.79,15.8l43.33,-21.67c12.59,-6.29 27.35,-3.47 36.79,5.96l15.88,15.71l43.33,-21.67c9.37,-4.69 19.95,-4.32 28.63,0.07l43.2,21.6l15.8,-15.8c12.49,-12.49 32.75,-12.49 45.25,0l9.37,9.38l9.38,-9.38c10.73,-10.73 27.19,-12.24 39.54,-4.54l40.66,20.34l15.8,-15.8c8.67,-8.67 21.07,-11.32 32.03,-7.96l62.34,15.59c17.12,4.28 27.53,21.63 23.25,38.75c-4.28,17.12 -21.63,27.53 -38.75,23.25l-46.4,-11.6l-19.31,19.14c-9.44,9.43 -24.2,12.25 -36.79,5.96l-43.33,-21.67l-15.79,15.8c-12.5,12.49 -32.76,12.49 -45.25,0l-9.38,-9.38l-9.46,9.29c-9.44,9.43 -24.2,12.25 -36.79,5.96l-49.75,-24.88l-47.08,23.55c-12.35,7.7 -28.81,6.19 -39.54,-4.54l-15.8,-15.8l-40.66,20.34c-12.35,7.7 -28.81,6.19 -39.54,-4.54l-9.38,-9.38l-9.46,9.29c-9.44,9.43 -24.2,12.25 -36.79,5.96l-49.75,-24.88l-47.08,23.55c-12.35,7.7 -28.81,6.19 -39.54,-4.54l-19.23,-19.23z"/>
					</g>
					<g color="#29b5f7" class="color-1" style="fill:var(--color-1, currentColor)">
						<path d="M512,160c256,0 384,117.59 384,227.55c0,17.03 -15.98,28.45 -32,28.45h-704c-16.02,0 -32,-11.42 -32,-28.45c0,-109.96 128,-227.55 384,-227.55zM160,736h64c17.67,0 32,14.33 32,32v64c0,17.67 14.33,32 32,32c17.67,0 32,-14.33 32,-32v-64c0,-17.67 14.33,-32 32,-32c17.67,0 32,14.33 32,32c0,17.67 14.33,32 32,32c17.67,0 32,-14.33 32,-32c0,-17.67 14.33,-32 32,-32h384c17.63,0 32,14.37 32,32v64c0,35.25 -28.75,64 -64,64h-640c-35.25,0 -64,-28.75 -64,-64v-64c0,-17.63 14.37,-32 32,-32z"/>
					</g>
				</g>
			</symbol>
			<symbol id="svg-sprite-painters_palette" class="svg-sprite" viewBox="0,0,1024,1024">
				<g fill="none" fill-rule="nonzero" style="mix-blend-mode: normal">
					<path d="M159.69,448.95c-12.39,-4.03 -25.26,-10.72 -30.35,-23.5c-4.37,-10.95 -1.95,-23.69 1.46,-34.56c4.76,-15.19 12.43,-30.46 19.54,-44.7c52.29,-104.77 146.12,-184.41 261.32,-210.15c98.29,-21.96 206.06,-3.66 289.23,53.95c83.92,58.12 126.07,161.45 131.15,260.84c2.89,56.63 -5.82,113.59 -25.59,166.75c-20.87,56.13 -53.66,107.08 -96.21,149.24c-84.67,83.88 -200.26,125.61 -318.18,129.83c-90.02,3.23 -209.35,-9.25 -260.01,-95.15c-7.87,-13.35 -5.54,-29.82 5.67,-40.5c21,-20.01 46.93,-35.97 71.45,-51.3c50.06,-31.32 109.83,-66.76 109.83,-133.7c0,-27.04 -7.9,-50.91 -27.19,-70.26c-33.52,-33.61 -88.63,-42.65 -132.12,-56.79zM538.58,537.02c49.16,-50.02 48.46,-130.43 -1.56,-179.6c-50.02,-49.16 -130.43,-48.46 -179.59,1.56c-49.17,50.02 -48.47,130.43 1.55,179.6c50.02,49.16 130.44,48.46 179.6,-1.56z" visibility="hidden"/>
					<g color="#29b5f7" class="color-1" style="fill:var(--color-1, currentColor)">
						<path d="M140.22,508.86c-30.91,-10.04 -57.05,-29.07 -69.41,-60.08c-18.09,-45.4 3.03,-90.39 23.16,-130.72c60.77,-121.77 170.21,-213.62 303.96,-243.51c115.33,-25.77 241.31,-3.9 338.83,63.65c100.25,69.44 152.11,190.23 158.2,309.42c6.9,135.22 -44.11,268.58 -140.38,363.95c-95.99,95.09 -226.43,143.24 -360.27,148.04c-115.58,4.14 -252.23,-17.08 -316.52,-126.11c-22.75,-38.58 -15.95,-87.22 16.47,-118.11c24.43,-23.29 53.02,-41.28 81.5,-59.1c25.44,-15.92 80.24,-45.06 80.24,-80.29c0,-10.03 -1.58,-18.52 -8.81,-25.77c-20.13,-20.19 -80.1,-32.63 -106.97,-41.37zM160,448c60.68,19.72 160,32 160,128c0,96 -118.26,125.37 -181.59,185.72c-10.89,10.38 -13.12,26.33 -5.49,39.27c50.2,85.15 168.52,97.91 259.1,94.66c117.85,-4.22 233.13,-45.95 317.52,-129.54c83.8,-83.03 127.49,-197.97 121.5,-315.23c-5.04,-98.8 -46.89,-202.01 -130.72,-260.07c-82.87,-57.4 -190.33,-75.72 -288.44,-53.8c-115.25,25.75 -208.12,105.74 -260.65,209.63c-24.53,50.51 -39.74,85.59 8.77,101.36zM358.28,539.29c-50.42,-49.55 -51.12,-130.6 -1.57,-181.01c49.55,-50.42 130.6,-51.12 181.01,-1.57c50.42,49.55 51.12,130.59 1.57,181.01c-49.55,50.42 -130.59,51.12 -181.01,1.57zM492.86,402.36c-25.21,-24.78 -65.73,-24.43 -90.5,0.78c-24.78,25.21 -24.43,65.73 0.78,90.5c25.21,24.78 65.73,24.43 90.51,-0.78c24.77,-25.21 24.42,-65.73 -0.79,-90.5z"/>
					</g>
					<g color="#93a0a8" class="color-2" style="fill:var(--color-2, currentColor)">
						<path d="M503.08,673.57c40.3,-10.22 51.05,32.13 31.29,49.59c-9.37,8.29 6.48,10.09 6.48,20.21c0,15.37 -10.22,28.87 -25.27,32.69c-55.76,14.19 -51.38,46.73 -52.39,49.41c-5.16,13.72 -19.17,23.56 -35.65,23.56c-20.86,0 -37.77,-15.77 -37.77,-35.22c0,-1.55 0.11,-3.07 0.32,-4.57c2.02,-14.51 -5.21,-27.98 -18.88,-35.19c-11.47,-6.04 -19.21,-17.52 -19.21,-30.68c0,-18.75 15.72,-34.09 35.55,-35.16c23.46,-1.27 28.82,-0.13 39.63,-15.81c17.02,-24.68 41.22,-10.04 75.9,-18.83z"/>
					</g>
					<g color="#ffa726" class="color-3" style="fill:var(--color-3, currentColor)">
						<path d="M660.17,348.08c-8.2,-13.3 -30.65,4.5 -52.17,4.5c-17.67,0 -32,-14.33 -32,-32c0,-32.58 33,-23.98 32,-64c-0.44,-17.67 14.33,-32 32,-32c13.96,0 25.83,8.93 30.2,21.39c3.05,8.69 9.56,10.61 17.8,10.61c23.93,0 8.34,27.38 26.61,33.8c12.46,4.37 21.39,16.24 21.39,30.2c0,3.71 -0.63,7.28 -1.8,10.6c-1.26,3.58 -1.25,7.05 0.01,10.63c1.16,3.28 1.79,6.81 1.79,10.48c0,17.51 -14.33,31.71 -32,31.71c-32,0 -34.28,-20.42 -43.83,-35.92z"/>
					</g>
					<g color="#93a0a8" class="color-2" style="fill:var(--color-2, currentColor)">
						<path d="M736.31,435.87c8.3,-10.26 17.74,-19.87 31.69,-19.87c17.67,0 32,14.33 32,32c0,13.95 -8.92,25.81 -21.37,30.19c-23.08,8.13 -10.63,49.06 -10.63,65.81c0,17.67 -14.33,32 -32,32c-13.95,0 -25.83,-8.93 -30.2,-21.4c-4.96,-14.12 -21.96,-10.6 -33.8,-10.6c-17.67,0 -32,-14.33 -32,-32c0,-13.96 8.93,-25.83 21.4,-30.2c8.68,-3.05 10.6,-9.56 10.6,-17.8c0,-8.84 7.16,-16 16,-16c11.29,0 38.11,0.47 48.31,-12.13z"/>
					</g>
					<g color="#b4c2c8" class="color-4" style="fill:var(--color-4, currentColor)">
						<path d="M688.56,714.78c0,18.32 -9.9,25.07 -28.66,27.04c-15.42,1.62 -18.96,26.18 -40.21,26.18c-15.5,0 -28.05,-11.91 -28.05,-26.61c0,-12.71 12.91,-23.28 -1.72,-34.53c-8.49,-6.53 -13.92,-16.5 -13.92,-27.67c0,-16.06 11.21,-29.64 26.62,-34.07c19.16,-5.51 11.5,-37.12 48.42,-37.12c25.69,0 25.64,16.66 39.66,20.7c7.7,2.22 13.3,9 13.3,17.03c0,8.39 -4.7,16.86 -11.42,21.75c-24.39,17.75 -4.02,31.47 -4.02,47.3z"/>
					</g>
					<g color="#b4c2c8" class="color-4" style="fill:var(--color-4, currentColor)">
						<path d="M489.67,192.5c18.32,0 34.52,11.94 36.49,27.94c0.56,4.58 2.96,8.33 7.08,11.08c6.53,4.36 10.76,11.35 10.76,19.22c0,13.21 -11.91,23.92 -26.61,23.92c-5.01,0 -9.07,-1.02 -12.35,-2.59c-7.6,-3.63 -16.76,-1.95 -22.18,4.06c-6.52,7.24 -16.5,11.87 -27.67,11.87c-16.06,0 -29.64,-9.56 -34.07,-22.7c-1.78,-5.28 -6,-9.07 -11.87,-10.67c-14.61,-3.98 -25.25,-16.19 -25.25,-30.63c0,-21.91 16.66,-21.87 20.7,-33.83c2.22,-6.56 9,-11.34 17.03,-11.34c8.39,0 13.2,6.03 17.3,12.24c12.75,19.3 34.8,1.43 50.64,1.43z"/>
					</g>
				</g>
			</symbol>
			<symbol id="svg-sprite-record_player" class="svg-sprite" viewBox="0,0,1024,1024">
				<g fill="none" fill-rule="nonzero" style="mix-blend-mode: normal">
					<path d="M929,384.98v215.16c0,15.43 -3.34,29.57 -10.24,43.38l-16.12,32.24c6.11,9.73 6.79,22.04 1.63,32.37l-7.27,14.54v109.74l-0.59,0.59h-64.68c-19.26,12.41 -43.79,13.87 -64.36,3.58l-7.16,-3.58h-165.19c-46.2,21.19 -96.2,32 -147.02,32c-50.82,0 -100.82,-10.81 -147.01,-32h-173.4l-0.59,-0.59v-173.4c-21.19,-46.19 -32,-96.19 -32,-147.01c0,-50.82 10.81,-100.82 32,-147.01v-173.4l0.59,-0.59h173.4c46.19,-21.19 96.19,-32 147.01,-32c50.82,0 100.82,10.81 147.02,32h172c0.53,-17.72 15.14,-32 32.98,-32h128c15.4,0 28.39,10.64 32,24.94v176.12c-3.53,13.99 -16.04,24.47 -31,24.92zM448,193c-176.18,0 -319,142.82 -319,319c0,176.18 142.82,319 319,319c176.18,0 319,-142.82 319,-319c0,-176.18 -142.82,-319 -319,-319z" visibility="hidden"/>
					<g color="#93a0a8" class="color-2" style="fill:var(--color-2, currentColor)">
						<path d="M96,128h832c17.63,0 32,14.37 32,32v32c0,-17.63 -14.37,-32 -32,-32h-128c-17.62,0 -32,14.37 -32,32h-173.2c-44.69,-20.53 -94.4,-32 -146.8,-32c-52.4,0 -102.11,11.47 -146.8,32h-173.2v173.2c-20.53,44.69 -32,94.4 -32,146.8c0,52.4 11.47,102.11 32,146.8v173.2h173.2c44.69,20.53 94.4,32 146.8,32c52.4,0 102.11,-11.47 146.8,-32h165.65l7.37,3.69c21.04,10.52 45.19,8.31 63.62,-3.69h64.56v-109.57l7.37,-14.74c5.27,-10.54 4.15,-22.64 -1.88,-31.87l16.38,-32.75c6.85,-13.7 10.13,-27.61 10.13,-42.93v-216.14c17.63,0 32,-14.38 32,-32v512c0,17.63 -14.37,32 -32,32h-832c-17.62,0 -32,-14.37 -32,-32v-704c0,-17.63 14.38,-32 32,-32z"/>
					</g>
					<g color="#ffa726" class="color-3" style="fill:var(--color-3, currentColor)">
						<path d="M800,192h128v160h-32v248.14c0,10.4 -2.1,19.32 -6.76,28.62l-28.74,57.49l14.25,7.13l-49.69,99.38c-7.88,15.76 -27.17,22.19 -42.93,14.31c-9.42,-4.71 -18.84,-9.42 -28.26,-14.13c-15.76,-7.89 -22.19,-27.17 -14.31,-42.94l49.69,-99.38l14.25,7.13l21.74,-43.49c4.66,-9.3 6.76,-18.21 6.76,-28.62v-233.64h-32z"/>
					</g>
					<path d="M448,383c71.24,0 129,57.76 129,129c0,71.24 -57.76,129 -129,129c-71.24,0 -129,-57.76 -129,-129c0,-71.24 57.76,-129 129,-129zM449,255.59v32.82l-0.59,0.59h-0.41c-123.16,0 -223,99.84 -223,223v0.41l-0.59,0.59h-32.82l-0.59,-0.59v-0.41c0,-141.94 115.06,-257 257,-257h0.41zM448,735c123.16,0 223,-99.84 223,-223v-0.41l0.59,-0.59h32.82l0.59,0.59v0.41c0,141.94 -115.06,257 -257,257h-0.41l-0.59,-0.59v-32.82l0.59,-0.59zM641,512c0,106.59 -86.41,193 -193,193h-0.41l-0.59,-0.59v-32.82l0.59,-0.59h0.41c87.81,0 159,-71.19 159,-159v-0.41l0.59,-0.59h32.82l0.59,0.59zM255,512c0,-106.59 86.41,-193 193,-193h0.41l0.59,0.59v32.82l-0.59,0.59h-0.41c-87.81,0 -159,71.19 -159,159v0.41l-0.59,0.59h-32.82l-0.59,-0.59zM448,417c-52.47,0 -95,42.53 -95,95c0,52.47 42.53,95 95,95c52.47,0 95,-42.53 95,-95c0,-52.47 -42.53,-95 -95,-95zM448,479c18.22,0 33,14.77 33,33c0,18.22 -14.78,33 -33,33c-18.22,0 -33,-14.78 -33,-33c0,-18.23 14.78,-33 33,-33z" visibility="hidden"/>
					<g color="#b4c2c8" class="color-4" style="fill:var(--color-4, currentColor)">
						<path d="M448,416c53.02,0 96,42.98 96,96c0,53.02 -42.98,96 -96,96c-53.02,0 -96,-42.98 -96,-96c0,-53.02 42.98,-96 96,-96zM448,480c-17.67,0 -32,14.33 -32,32c0,17.67 14.33,32 32,32c17.67,0 32,-14.33 32,-32c0,-17.67 -14.33,-32 -32,-32z"/>
					</g>
					<g color="#29b5f7" class="color-1" style="fill:var(--color-1, currentColor)">
						<path d="M448,192c176.73,0 320,143.27 320,320c0,176.73 -143.27,320 -320,320c-176.73,0 -320,-143.27 -320,-320c0,-176.73 143.27,-320 320,-320zM448,384c-70.69,0 -128,57.31 -128,128c0,70.69 57.31,128 128,128c70.69,0 128,-57.31 128,-128c0,-70.69 -57.31,-128 -128,-128zM448,256c-141.39,0 -256,114.61 -256,256h32c0,-123.71 100.29,-224 224,-224zM448,736v32c141.39,0 256,-114.61 256,-256h-32c0,123.71 -100.29,224 -224,224zM640,512h-32c0,88.37 -71.63,160 -160,160v32c106.04,0 192,-85.96 192,-192zM256,512h32c0,-88.37 71.64,-160 160,-160v-32c-106.04,0 -192,85.96 -192,192z"/>
					</g>
				</g>
			</symbol>
		</g>
	</defs>
</svg>